<svg width="24" height="24" viewBox="0 0 24 24" fill="none" xmlns="http://www.w3.org/2000/svg">
<path fill-rule="evenodd" clip-rule="evenodd" d="M4.8 12L8.7 8.09998C9.0866 7.71338 9.0866 7.08658 8.7 6.69998C8.3134 6.31338 7.6866 6.31338 7.3 6.69998L2.70711 11.2929C2.31658 11.6834 2.31658 12.3166 2.70711 12.7071L7.36361 17.3636C7.71508 17.7151 8.28493 17.7151 8.6364 17.3636L8.76361 17.2364C9.11508 16.8849 9.11508 16.3151 8.76361 15.9636L4.8 12ZM19.2 12L15.3 8.09998C14.9134 7.71338 14.9134 7.08658 15.3 6.69998C15.6866 6.31338 16.3134 6.31338 16.7 6.69998L21.2929 11.2929C21.6834 11.6834 21.6834 12.3166 21.2929 12.7071L16.6364 17.3636C16.2849 17.7151 15.7151 17.7151 15.3636 17.3636L15.2364 17.2364C14.8849 16.8849 14.8849 16.3151 15.2364 15.9636L19.2 12Z" fill="currentColor"></path>
</svg>