<svg width="24" height="24" viewBox="0 0 24 24" fill="none" xmlns="http://www.w3.org/2000/svg">
<path d="M10.4733 21.9166C9.8051 21.8332 9.30394 21.3326 9.13689 20.6653L8.96984 19.6642C8.80278 19.5808 8.71926 19.5808 8.5522 19.4974L7.88399 19.9979C7.38283 20.415 6.63109 20.415 6.0464 19.9979C6.0464 19.9979 4.04176 18.0793 3.95824 17.9124C3.45708 17.3285 3.45708 16.5777 3.87471 15.9937L4.4594 15.3264C4.37587 15.1595 4.37587 15.0761 4.29234 14.9093L3.37355 14.7424C2.70534 14.659 2.20418 14.1585 2.03712 13.4077C1.9536 13.1575 2.03712 10.4046 2.03712 10.4046C2.12065 9.73723 2.62181 9.23671 3.29002 9.06986L4.29234 8.90302C4.37587 8.8196 4.37587 8.73618 4.4594 8.56934L3.95824 7.90198C3.5406 7.40146 3.5406 6.65068 3.95824 6.06674C3.95824 6.06674 5.87935 4.06465 6.0464 3.98123C6.63109 3.48071 7.38283 3.48071 7.96752 3.89781L8.63573 4.48175C8.80278 4.39833 8.88631 4.39833 9.05336 4.31491L9.22042 3.39729C9.30394 2.72993 9.8051 2.22941 10.5568 2.06257C10.8074 1.97914 13.2297 1.97914 13.4803 2.06257H13.5638C14.232 2.14599 14.7332 2.64651 14.9002 3.31387L15.0673 4.31491C15.1508 4.39833 15.2343 4.48175 15.4014 4.48175L16.0696 3.98123C16.5708 3.56413 17.3225 3.56413 17.9072 3.98123C17.9072 3.98123 19.9118 5.8999 19.9954 6.06674C20.4965 6.65068 20.4965 7.40146 20.0789 7.9854L19.5777 8.65276C19.6613 8.8196 19.6613 8.98644 19.7448 9.06986L20.6636 9.2367C21.3318 9.32013 21.9165 9.90407 22 10.5714V13.5746C21.9165 14.2419 21.4153 14.7424 20.7471 14.9093L19.7448 15.0761C19.6613 15.243 19.6613 15.3264 19.5777 15.4932L20.1624 16.244C20.58 16.7445 20.58 17.4953 20.1624 18.0792L17.9907 20.2482C17.406 20.6653 16.6543 20.6653 16.1531 20.2482L15.3179 19.5808C15.1508 19.6642 15.0673 19.6642 14.9002 19.7477L14.7332 20.6653C14.6497 21.3326 14.065 21.9166 13.3968 22H10.4733V21.9166ZM11.4756 20.3316C11.8097 20.3316 12.1439 20.3316 12.3944 20.3316C12.8121 20.3316 13.1462 19.9979 13.2297 19.5808L13.3132 18.9135C13.3132 18.6632 13.5638 18.4129 13.8144 18.2461L15.0673 17.7456C15.3179 17.6621 15.652 17.6621 15.9026 17.829L16.4872 18.2461C16.8213 18.4964 17.3225 18.4964 17.5731 18.1627C17.7401 17.9958 17.9907 17.7456 18.2413 17.4953C18.4919 17.1616 18.5754 16.7445 18.3248 16.4108L17.8237 15.9937C17.6566 15.7435 17.5731 15.4098 17.7401 15.1595L18.2413 13.9917C18.3248 13.7414 18.5754 13.5746 18.9095 13.4911L19.5777 13.4077C19.9954 13.3243 20.3295 12.9906 20.3295 12.5735C20.3295 12.2398 20.3295 11.9062 20.3295 11.6559C20.3295 11.2388 19.9954 10.9051 19.5777 10.8217L18.9095 10.7383C18.6589 10.7383 18.4084 10.488 18.2413 10.2377L17.7401 8.98644C17.6566 8.73618 17.6566 8.4025 17.8237 8.15224L18.2413 7.5683C18.4919 7.23462 18.4919 6.81752 18.1578 6.48384C17.9907 6.317 17.7401 6.06674 17.4896 5.81648C17.1555 5.48279 16.7378 5.48279 16.4037 5.73306L15.9861 6.15016C15.7355 6.317 15.4014 6.40042 15.1508 6.23358L13.9814 5.73306C13.7309 5.64963 13.5638 5.39937 13.4803 5.06569L13.3132 4.48175C13.2297 4.06465 12.8956 3.73097 12.478 3.73097C12.1439 3.73097 11.8097 3.73097 11.5592 3.73097C11.1415 3.73097 10.8074 4.06465 10.7239 4.48175L10.6404 5.14911C10.6404 5.39937 10.3898 5.64963 10.1392 5.81648L8.96984 6.23358C8.63573 6.40042 8.38515 6.317 8.13457 6.15016L7.54988 5.73306C7.21578 5.48279 6.71462 5.48279 6.46404 5.81648C6.21346 5.98332 6.0464 6.23358 5.79582 6.40042C5.54524 6.7341 5.46172 7.1512 5.79582 7.48488L6.12993 8.06882C6.29698 8.31908 6.38051 8.65276 6.21346 8.90302L5.7123 10.0709C5.62877 10.3212 5.37819 10.488 5.04408 10.5714L4.37587 10.6548C3.95824 10.7383 3.62413 11.0719 3.62413 11.4891C3.62413 11.8227 3.62413 12.1564 3.62413 12.4067C3.62413 12.8238 3.95824 13.1575 4.37587 13.2409L5.04408 13.3243C5.29466 13.3243 5.54524 13.5746 5.7123 13.8248L6.21346 15.0761C6.29698 15.3264 6.29698 15.6601 6.12993 15.9103L5.7123 16.4943C5.46172 16.8279 5.46172 17.3285 5.79582 17.5787C5.96288 17.7456 6.21346 17.9958 6.46404 18.2461C6.79814 18.4964 7.21578 18.5798 7.54988 18.3295L7.96752 17.829C8.2181 17.6621 8.5522 17.5787 8.80278 17.7456L9.97216 18.2461C10.2227 18.3295 10.3898 18.5798 10.4733 18.9135L10.5568 19.5808C10.7239 19.9979 11.058 20.3316 11.4756 20.3316Z" fill="currentColor"></path>
<path d="M11.9768 16.9948C9.22042 16.9948 6.9652 14.7424 6.9652 11.9896C6.9652 9.23671 9.22042 6.98436 11.9768 6.98436C14.7332 6.98436 16.9884 9.23671 16.9884 11.9896C16.9884 14.7424 14.7332 16.9948 11.9768 16.9948ZM11.9768 8.65277C10.1392 8.65277 8.63573 10.1543 8.63573 11.9896C8.63573 13.8248 10.1392 15.3264 11.9768 15.3264C13.8144 15.3264 15.3179 13.8248 15.3179 11.9896C15.3179 10.1543 13.8144 8.65277 11.9768 8.65277Z" fill="currentColor"></path>
</svg>