<svg width="24" height="24" viewBox="0 0 24 24" fill="none" xmlns="http://www.w3.org/2000/svg">
<path d="M16.9995 3.09961C18.0338 3.09961 19.026 3.51095 19.7573 4.24219C20.4887 4.97358 20.8999 5.96566 20.8999 7C20.8999 7.01628 20.8998 7.03257 20.8989 7.04883L20.8716 7.41504C20.7043 9.23804 20.0344 10.9818 18.9331 12.4502C17.8768 13.8586 16.4656 14.9553 14.8491 15.6348C14.7325 16.5933 14.4195 17.5196 13.9204 18.3516C13.3168 19.3576 12.4661 20.1933 11.4497 20.7793C11.1877 20.9304 10.8666 20.9403 10.5962 20.8047C10.3597 20.686 10.1893 20.4701 10.1265 20.2168L10.106 20.1064L10.065 19.8105C10.0074 19.4544 9.92095 19.1052 9.81106 18.7646C9.25496 19.3587 8.59639 19.8539 7.86086 20.2217C6.63152 20.8364 5.24626 21.0701 3.88332 20.8926L3.99954 20H3.99856L3.88332 20.8926C3.52925 20.8463 3.24097 20.5965 3.13918 20.2637L3.10793 20.1162L3.07864 19.8604C2.96028 18.5807 3.20163 17.2911 3.77786 16.1387C4.14571 15.403 4.64071 14.7436 5.23489 14.1875C4.80086 14.0475 4.35217 13.948 3.89407 13.8936C3.59371 13.8579 3.33142 13.6737 3.19582 13.4033C3.06028 13.133 3.06929 12.8128 3.22024 12.5508C3.80625 11.5343 4.64187 10.6838 5.64797 10.0801C6.47994 9.5809 7.40612 9.26608 8.36477 9.14941C9.04434 7.53331 10.1421 6.12255 11.5503 5.06641C13.1165 3.89183 14.9959 3.20821 16.9507 3.10156L16.9995 3.09961ZM7.01809 15.0537C6.32891 15.5381 5.76726 16.1862 5.38821 16.9443C5.04434 17.6322 4.86253 18.3858 4.8511 19.1484C5.61399 19.1371 6.36817 18.9563 7.05618 18.6123C7.81422 18.2333 8.45951 17.6696 8.94387 16.9805C8.69024 16.6037 8.40154 16.2487 8.07668 15.9238C7.75112 15.5983 7.39576 15.3077 7.01809 15.0537ZM17.0132 4.90039C15.4265 4.99394 13.9024 5.55289 12.6304 6.50684C11.3488 7.46802 10.3808 8.78763 9.84914 10.2988C9.726 10.6488 9.40058 10.8871 9.02981 10.8994L8.70559 10.9209C7.95309 10.9939 7.22437 11.2327 6.57375 11.623C6.20788 11.8426 5.87262 12.1065 5.57473 12.4072C6.99286 12.8257 8.29247 13.5938 9.34914 14.6504C10.4057 15.7069 11.1728 17.0069 11.5913 18.4248C11.8923 18.1268 12.1568 17.7919 12.3765 17.4258C12.8226 16.6823 13.0714 15.8373 13.1001 14.9707L13.1157 14.834C13.1743 14.5215 13.3953 14.2591 13.7017 14.1514L13.9986 14.999L13.9995 15L13.7017 14.1514C15.2128 13.6197 16.5325 12.6516 17.4937 11.3701C18.4493 10.0959 19.0061 8.56817 19.0982 6.97852C19.0926 6.42933 18.8736 5.9034 18.4849 5.51465C18.0942 5.12408 17.5653 4.90385 17.0132 4.90039ZM15.1001 9C15.1001 8.9736 15.0894 8.94842 15.0708 8.92969C15.0521 8.91093 15.0261 8.90039 14.9995 8.90039C14.9732 8.90052 14.9479 8.91105 14.9292 8.92969C14.9106 8.94842 14.8999 8.97359 14.8999 9C14.8999 9.02641 14.9106 9.05158 14.9292 9.07031C14.9479 9.08895 14.9732 9.09948 14.9995 9.09961C15.0261 9.09961 15.0521 9.08907 15.0708 9.07031C15.0894 9.05158 15.1001 9.0264 15.1001 9ZM16.8999 9C16.8999 9.50391 16.6996 9.98743 16.3433 10.3438C15.987 10.6999 15.5033 10.9004 14.9995 10.9004C14.4959 10.9003 14.0129 10.6998 13.6568 10.3438C13.3004 9.98743 13.1001 9.50391 13.1001 9C13.1001 8.49609 13.3004 8.01257 13.6568 7.65625C14.0129 7.3002 14.4959 7.09974 14.9995 7.09961C15.5033 7.09961 15.987 7.30008 16.3433 7.65625C16.6996 8.01257 16.8999 8.49609 16.8999 9Z" fill="currentColor"></path>
</svg>